<svg xmlns="http://www.w3.org/2000/svg" width="640" height="400" viewBox="0 0 640 400" font-family="Helvetica,Arial,sans-serif">
<rect width="640" height="400" fill="white"/>
<text x="320.0" y="26" font-size="16" font-weight="bold" text-anchor="middle">Runtime Robustness — safety holds 16/16 families, 0 false permits (Exp 8)</text>
<line x1="80" y1="50" x2="80" y2="340" stroke="#333"/>
<line x1="80" y1="340" x2="610" y2="340" stroke="#333"/>
<text x="18" y="195.0" font-size="12" text-anchor="middle" transform="rotate(-90 18 195.0)">trials (green=safety holds)</text>
<text x="345.0" y="384" font-size="12" text-anchor="middle"></text>
<rect x="86.6" y="108.0" width="19.9" height="232.0" fill="#3a8a5f"/>
<text x="96.6" y="102.0" font-size="10" text-anchor="middle">10</text>
<text x="96.6" y="356.0" font-size="9.5" text-anchor="middle">missing predic</text>
<rect x="119.8" y="270.4" width="19.9" height="69.6" fill="#3a8a5f"/>
<text x="129.7" y="264.4" font-size="10" text-anchor="middle">3</text>
<text x="129.7" y="356.0" font-size="9.5" text-anchor="middle">delayed predic</text>
<rect x="152.9" y="108.0" width="19.9" height="232.0" fill="#3a8a5f"/>
<text x="162.8" y="102.0" font-size="10" text-anchor="middle">10</text>
<text x="162.8" y="356.0" font-size="9.5" text-anchor="middle">corrupted pred</text>
<rect x="186.0" y="247.2" width="19.9" height="92.8" fill="#3a8a5f"/>
<text x="195.9" y="241.2" font-size="10" text-anchor="middle">4</text>
<text x="195.9" y="356.0" font-size="9.5" text-anchor="middle">conflicting pr</text>
<rect x="219.1" y="293.6" width="19.9" height="46.4" fill="#3a8a5f"/>
<text x="229.1" y="287.6" font-size="10" text-anchor="middle">2</text>
<text x="229.1" y="356.0" font-size="9.5" text-anchor="middle">stale context</text>
<rect x="252.2" y="293.6" width="19.9" height="46.4" fill="#3a8a5f"/>
<text x="262.2" y="287.6" font-size="10" text-anchor="middle">2</text>
<text x="262.2" y="356.0" font-size="9.5" text-anchor="middle">missing author</text>
<rect x="285.4" y="270.4" width="19.9" height="69.6" fill="#3a8a5f"/>
<text x="295.3" y="264.4" font-size="10" text-anchor="middle">3</text>
<text x="295.3" y="356.0" font-size="9.5" text-anchor="middle">authorization </text>
<rect x="318.5" y="316.8" width="19.9" height="23.2" fill="#3a8a5f"/>
<text x="328.4" y="310.8" font-size="10" text-anchor="middle">1</text>
<text x="328.4" y="356.0" font-size="9.5" text-anchor="middle">network delay</text>
<rect x="351.6" y="224.0" width="19.9" height="116.0" fill="#3a8a5f"/>
<text x="361.6" y="218.0" font-size="10" text-anchor="middle">5</text>
<text x="361.6" y="356.0" font-size="9.5" text-anchor="middle">partial system</text>
<rect x="384.8" y="270.4" width="19.9" height="69.6" fill="#3a8a5f"/>
<text x="394.7" y="264.4" font-size="10" text-anchor="middle">3</text>
<text x="394.7" y="356.0" font-size="9.5" text-anchor="middle">predicate race</text>
<rect x="417.9" y="270.4" width="19.9" height="69.6" fill="#3a8a5f"/>
<text x="427.8" y="264.4" font-size="10" text-anchor="middle">3</text>
<text x="427.8" y="356.0" font-size="9.5" text-anchor="middle">clock skew</text>
<rect x="451.0" y="316.8" width="19.9" height="23.2" fill="#3a8a5f"/>
<text x="460.9" y="310.8" font-size="10" text-anchor="middle">1</text>
<text x="460.9" y="356.0" font-size="9.5" text-anchor="middle">replay corrupt</text>
<rect x="484.1" y="316.8" width="19.9" height="23.2" fill="#3a8a5f"/>
<text x="494.1" y="310.8" font-size="10" text-anchor="middle">1</text>
<text x="494.1" y="356.0" font-size="9.5" text-anchor="middle">ledger corrupt</text>
<rect x="517.2" y="316.8" width="19.9" height="23.2" fill="#3a8a5f"/>
<text x="527.2" y="310.8" font-size="10" text-anchor="middle">1</text>
<text x="527.2" y="356.0" font-size="9.5" text-anchor="middle">partial ledger</text>
<rect x="550.4" y="316.8" width="19.9" height="23.2" fill="#3a8a5f"/>
<text x="560.3" y="310.8" font-size="10" text-anchor="middle">1</text>
<text x="560.3" y="356.0" font-size="9.5" text-anchor="middle">event reorderi</text>
<rect x="583.5" y="316.8" width="19.9" height="23.2" fill="#3a8a5f"/>
<text x="593.4" y="310.8" font-size="10" text-anchor="middle">1</text>
<text x="593.4" y="356.0" font-size="9.5" text-anchor="middle">duplicate even</text>
</svg>