<svg xmlns="http://www.w3.org/2000/svg" width="640" height="380" viewBox="0 0 640 380"><rect width="640" height="380" fill="white"/><text x="320.0" y="20" text-anchor="middle" font-family="sans-serif" font-size="14" font-weight="bold">p99 latency vs threads (ms)</text><polyline points="70.0,186.1 161.7,175.3 253.3,153.8 345.0,63.7 436.7,44.3 528.3,40.0 620.0,42.1" fill="none" stroke="#3b6ea5" stroke-width="2"/><circle cx="70.0" cy="186.1" r="3" fill="#3b6ea5"/><text x="70.0" y="346.0" text-anchor="middle" font-family="sans-serif" font-size="10">1</text><text x="70.0" y="178.1" text-anchor="middle" font-family="sans-serif" font-size="9">0</text><circle cx="161.7" cy="175.3" r="3" fill="#3b6ea5"/><text x="161.7" y="346.0" text-anchor="middle" font-family="sans-serif" font-size="10">2</text><text x="161.7" y="167.3" text-anchor="middle" font-family="sans-serif" font-size="9">0</text><circle cx="253.3" cy="153.8" r="3" fill="#3b6ea5"/><text x="253.3" y="346.0" text-anchor="middle" font-family="sans-serif" font-size="10">4</text><text x="253.3" y="145.8" text-anchor="middle" font-family="sans-serif" font-size="9">0</text><circle cx="345.0" cy="63.7" r="3" fill="#3b6ea5"/><text x="345.0" y="346.0" text-anchor="middle" font-family="sans-serif" font-size="10">8</text><text x="345.0" y="55.7" text-anchor="middle" font-family="sans-serif" font-size="9">0</text><circle cx="436.7" cy="44.3" r="3" fill="#3b6ea5"/><text x="436.7" y="346.0" text-anchor="middle" font-family="sans-serif" font-size="10">16</text><text x="436.7" y="36.3" text-anchor="middle" font-family="sans-serif" font-size="9">0</text><circle cx="528.3" cy="40.0" r="3" fill="#3b6ea5"/><text x="528.3" y="346.0" text-anchor="middle" font-family="sans-serif" font-size="10">32</text><text x="528.3" y="32.0" text-anchor="middle" font-family="sans-serif" font-size="9">0</text><circle cx="620.0" cy="42.1" r="3" fill="#3b6ea5"/><text x="620.0" y="346.0" text-anchor="middle" font-family="sans-serif" font-size="10">64</text><text x="620.0" y="34.1" text-anchor="middle" font-family="sans-serif" font-size="9">0</text><line x1="70" y1="330" x2="630" y2="330" stroke="#333"/><line x1="70" y1="40" x2="70" y2="330" stroke="#333"/><text x="320.0" y="372" text-anchor="middle" font-family="sans-serif" font-size="11">threads</text></svg>